PathFileType	4	(X/Y/Z)	C:/Users/opensim2020/Desktop/walking_exp_matlab/subject06_walking15_straight_03.trc																																																																																																																																											
DataRate	CameraRate	NumFrames	NumMarkers	Units	OrigDataRate	OrigDataStartFrame	OrigNumFrames																																																																																																																																							
100	100	6	47	mm	100	2281	193																																																																																																																																							
Frame#	Time	LFHD			RFHD			LBHD			RBHD			C7			T10			CLAV			STRN			RBAK			LSHO			LUPA			LELB			LFRM			LWRA			LWRB			LFIN			RSHO			RUPA			RELB			RFRM			RWRA			RWRB			RFIN			LASI			RASI			LPSI			RPSI			LTHI			LKNE			LTIB			LANK			LHEE			LTOE			RTHI			RKNE			RTIB			RANK			RHEE			RTOE			*39			*40			*41			*42			*43			*44			*45			*46		
		X1	Y1	Z1	X2	Y2	Z2	X3	Y3	Z3	X4	Y4	Z4	X5	Y5	Z5	X6	Y6	Z6	X7	Y7	Z7	X8	Y8	Z8	X9	Y9	Z9	X10	Y10	Z10	X11	Y11	Z11	X12	Y12	Z12	X13	Y13	Z13	X14	Y14	Z14	X15	Y15	Z15	X16	Y16	Z16	X17	Y17	Z17	X18	Y18	Z18	X19	Y19	Z19	X20	Y20	Z20	X21	Y21	Z21	X22	Y22	Z22	X23	Y23	Z23	X24	Y24	Z24	X25	Y25	Z25	X26	Y26	Z26	X27	Y27	Z27	X28	Y28	Z28	X29	Y29	Z29	X30	Y30	Z30	X31	Y31	Z31	X32	Y32	Z32	X33	Y33	Z33	X34	Y34	Z34	X35	Y35	Z35	X36	Y36	Z36	X37	Y37	Z37	X38	Y38	Z38	X39	Y39	Z39	X40	Y40	Z40	X41	Y41	Z41	X42	Y42	Z42	X43	Y43	Z43	X44	Y44	Z44	X45	Y45	Z45	X46	Y46	Z46	X47	Y47	Z47
																																																																																																																																														
145	1.44	333.35733	1664.70642	1356.98218	344.71716	1661.0321	1488.59351	201.45996	1608.51758	1371.32483	213.85635	1610.146	1500.48621	207.92049	1455.1449	1429.31445	172.79588	1126.34045	1443.91296	317.94162	1378.86096	1430.52759	359.76108	1205.83032	1428.39417	135.79279	1287.56262	1514.38721	262.92645	1405.6842	1268.19482	257.40005	1202.41113	1197.70776	250.51201	1089.87842	1185.40869	284.50555	943.21985	1162.6438	354.4859	833.99847	1204.4165	295.9118	824.69104	1165.67505	343.96552	748.21661	1164.40149	274.76279	1413.35791	1591.34583	232.65437	1218.03271	1683.38086	238.28061	1095.89038	1697.5	255.03329	976.87079	1715.46558	314.34473	837.58551	1681.91016	263.96637	839.90906	1725.32947	300.98721	764.33801	1727.08936	359.51315	975.26154	1337.19568	351.81195	974.5141	1557.12439	198.90707	993.30573	1359.95313	199.73401	988.6723	1527.54492	316.35245	656.56244	1284.32837	320.70251	493.03003	1313.11194	273.60965	239.96544	1328.1283	253.97389	69.54877	1373.45886	208.79512	56.08438	1416.59521	395.8259	45.49609	1386.70654	348.01697	637.52539	1623.31653	383.63138	515.26428	1613.21643	212.84676	326.3876	1598.54517	80.6221	198.80797	1548.75134	39.51488	201.10603	1498.83643	169.87253	74.75571	1569.65747	237.58452	1705.42822	1422.64697	NaN	NaN	NaN	NaN	NaN	NaN	NaN	NaN	NaN	NaN	NaN	NaN	NaN	NaN	NaN	NaN	NaN	NaN	NaN	NaN	NaN
146	1.45	344.37466	1664.94849	1357.73535	355.73654	1660.87402	1489.29932	212.21426	1609.42493	1371.96509	224.57941	1610.67798	1501.11926	218.00601	1455.40649	1429.52527	182.95935	1126.5835	1443.48059	327.98761	1379.11865	1430.87805	369.79562	1206.0979	1428.22729	145.75195	1287.75793	1514.03442	273.47769	1406.3855	1268.52332	271.29111	1203.21924	1197.65625	266.56863	1090.56738	1184.76147	305.25314	945.15283	1162.01306	378.96487	838.50281	1203.93896	320.59357	827.06866	1165.37598	371.68484	752.51831	1163.75037	284.49399	1413.48413	1591.55371	241.18559	1218.07776	1682.88123	245.70053	1095.88049	1696.54395	260.48715	976.56738	1714.37024	317.66125	836.15863	1681.46228	266.9722	839.45093	1724.43628	302.25577	762.94543	1726.21826	369.21603	975.06293	1336.26697	362.55792	975.11792	1556.28601	208.95667	993.39575	1359.78674	210.08693	989.3476	1527.43152	322.45065	656.04022	1283.8717	325.31589	492.52414	1312.87805	275.9198	239.88615	1328.19177	254.28734	69.65194	1373.59338	209.1333	56.33426	1416.71106	396.05655	45.39315	1386.81372	363.59332	639.45685	1623.46692	401.06598	517.72205	1612.57788	235.09082	323.25159	1599.44336	107.31452	190.83791	1550.74573	65.96561	190.87015	1500.75366	203.73224	72.45242	1572.19812	248.79929	1705.99561	1423.48511	NaN	NaN	NaN	NaN	NaN	NaN	NaN	NaN	NaN	NaN	NaN	NaN	NaN	NaN	NaN	NaN	NaN	NaN	NaN	NaN	NaN
147	1.46	355.39478	1665.02246	1358.47681	366.65363	1660.61035	1489.99231	222.8188	1610.15125	1372.62952	235.24181	1611.05261	1501.78955	228.20517	1455.53967	1429.59692	193.17717	1126.65662	1443.05188	338.09305	1379.2019	1431.13232	379.87555	1206.25745	1428.06824	155.74904	1287.71838	1513.45801	283.96451	1406.92102	1268.8501	284.77563	1204.02942	1197.17078	282.56021	1091.27991	1184.08264	325.92938	947.16663	1161.39246	403.10971	843.36395	1203.63611	345.2652	829.63531	1165.02393	399.2457	757.26483	1163.3363	294.12631	1413.4292	1591.80078	249.55847	1218.01013	1682.41541	253.19321	1095.71057	1695.43481	266.01932	976.1933	1713.39575	320.41452	834.21344	1680.10181	270.14603	838.99854	1723.52734	303.62936	761.52997	1725.07703	378.93201	974.65894	1335.42981	373.32788	975.57367	1555.50757	218.82132	993.32874	1359.57813	221.86336	989.40845	1527.20569	329.00928	655.56433	1283.34692	330.2377	491.89594	1312.62109	278.67221	239.71524	1328.00842	254.49838	69.71822	1373.54517	209.30231	56.62894	1416.62305	396.39252	45.25834	1386.80212	378.90652	641.26691	1623.5592	417.97369	520.06024	1611.7196	257.3887	319.92859	1600.18506	134.67789	182.24153	1552.59094	93.1109	180.14709	1502.78174	236.20297	69.25223	1574.99121	260.04178	1706.40271	1424.34973	NaN	NaN	NaN	NaN	NaN	NaN	NaN	NaN	NaN	NaN	NaN	NaN	NaN	NaN	NaN	NaN	NaN	NaN	NaN	NaN	NaN
148	1.47	366.33578	1664.89917	1359.22998	377.49963	1660.19287	1490.71375	233.58014	1610.62695	1373.25452	245.94046	1611.23621	1502.39478	238.35995	1455.4751	1429.8092	203.47931	1126.47583	1442.54834	348.18793	1379.13	1431.32324	389.97827	1206.20007	1427.98132	165.9236	1287.31946	1512.76733	294.3428	1407.24463	1269.177	298.24185	1204.68921	1196.84143	298.27521	1091.89929	1183.30933	346.32861	949.33795	1160.823	426.89316	848.39532	1203.36987	370.14484	832.50586	1164.69141	426.69711	762.41254	1163.02295	303.72577	1413.21399	1592.07605	257.82538	1217.80078	1682.09009	260.40372	1095.46045	1694.73828	271.60452	975.74048	1712.46167	323.9447	832.75751	1679.31445	273.60162	838.40979	1722.64612	305.64896	760.26624	1724.24036	388.52689	974.03992	1334.68152	384.03479	975.77521	1554.78015	228.6348	993.19476	1359.53503	232.35693	989.80957	1527.19055	335.82852	654.99628	1283.35144	335.35156	491.14874	1312.47412	281.0668	239.49168	1328.12952	254.95163	69.81395	1373.73547	209.81583	57.09444	1416.84521	396.68341	45.08139	1386.81421	394.00613	642.914	1623.61267	434.4552	522.22858	1610.86829	279.73074	316.32974	1600.96069	162.6087	173.29315	1554.54956	121.21626	169.04478	1504.60352	269.80258	65.48929	1576.84656	271.19672	1706.59021	1425.13354	NaN	NaN	NaN	NaN	NaN	NaN	NaN	NaN	NaN	NaN	NaN	NaN	NaN	NaN	NaN	NaN	NaN	NaN	NaN	NaN	NaN
149	1.48	377.26468	1664.64783	1359.95935	388.33505	1659.60742	1491.36292	244.32069	1610.89868	1373.8595	256.56201	1611.25513	1503.08289	248.50182	1455.28137	1430.03943	213.76852	1126.10242	1442.12354	358.4613	1378.79651	1431.4292	400.13452	1205.97217	1427.87769	176.04079	1286.75854	1512.04211	304.71542	1407.43396	1269.47241	311.50488	1205.17517	1196.52258	313.90073	1092.56909	1182.52466	366.63614	951.59906	1160.23389	450.83655	853.86237	1203.17749	394.34015	835.64771	1164.547	453.94666	767.88599	1162.88721	313.19308	1412.73804	1592.29797	266.04446	1217.46118	1681.79309	267.65643	1095.03479	1694.07874	277.30374	975.1485	1711.65198	327.71832	831.42914	1678.64795	277.26083	837.77887	1721.7948	308.44266	759.29517	1723.75623	398.03757	973.21442	1333.92126	394.82651	975.67249	1553.94263	238.31168	992.96405	1359.61926	242.64738	989.98401	1527.44543	342.90543	654.38416	1283.71497	340.85034	490.35791	1312.49475	283.53082	239.2422	1328.3457	255.38669	69.93336	1373.9718	210.62721	57.25417	1416.48975	397.01974	44.83886	1386.81653	409.08463	644.47485	1623.75525	450.46875	524.21906	1609.91931	302.19965	312.43698	1601.68323	191.39069	164.1418	1556.25073	149.94994	157.53461	1506.4115	303.46542	62.08894	1578.87842	282.24377	1706.59778	1425.93359	NaN	NaN	NaN	NaN	NaN	NaN	NaN	NaN	NaN	NaN	NaN	NaN	NaN	NaN	NaN	NaN	NaN	NaN	NaN	NaN	NaN
150	1.49	388.10696	1663.98547	1360.94092	399.10632	1658.90515	1492.06567	254.94951	1610.93713	1374.47644	267.18994	1611.06055	1503.62939	258.74902	1454.8866	1430.28857	223.93451	1125.67383	1441.76563	368.71561	1378.42493	1431.75537	410.28384	1205.55994	1427.81641	186.18054	1286.0603	1511.32239	315.01727	1407.3761	1269.78125	324.79865	1205.49609	1196.31116	329.39877	1092.97461	1181.67651	386.61234	953.86615	1159.78284	474.01151	859.3739	1203.19971	418.71289	838.93176	1164.40491	480.80505	773.70081	1162.91614	322.90179	1412.07312	1592.62317	274.12845	1216.95105	1681.5321	274.92139	1094.34241	1693.35986	283.06726	974.41516	1710.92554	331.79233	829.96686	1677.98132	281.2204	837.01422	1720.94336	310.86606	757.80011	1722.39624	407.54129	972.21716	1333.1759	405.56912	975.40002	1553.16284	248.00589	992.49347	1359.71716	252.92148	990.00281	1527.80334	349.85519	653.39288	1283.75415	346.61774	489.43887	1312.65405	286.4389	238.90224	1328.40735	255.83395	70.09255	1374.15784	210.99451	57.76237	1416.72742	397.59573	44.48587	1386.75952	423.005	645.56769	1623.29761	465.79156	526.0047	1608.96545	324.78711	308.41034	1602.2522	220.75723	154.80731	1557.8479	179.70801	145.77496	1507.99622	337.56454	58.70506	1581.24646	293.258	1706.41675	1426.66418	NaN	NaN	NaN	NaN	NaN	NaN	NaN	NaN	NaN	NaN	NaN	NaN	NaN	NaN	NaN	NaN	NaN	NaN	NaN	NaN	NaN
